<svg width="39" height="39" viewBox="0 0 39 39" fill="none" xmlns="http://www.w3.org/2000/svg">
<path d="M19.5 23.9032C17.7659 23.9032 16.3549 25.3142 16.3549 27.0484C16.3549 28.7826 17.7659 30.1936 19.5 30.1936C21.2342 30.1936 22.6452 28.7826 22.6452 27.0484C22.6452 25.3142 21.2342 23.9032 19.5 23.9032ZM19.5 28.9355C18.4598 28.9355 17.6129 28.0887 17.6129 27.0484C17.6129 26.0081 18.4598 25.1613 19.5 25.1613C20.5403 25.1613 21.3871 26.0081 21.3871 27.0484C21.3871 28.0887 20.5403 28.9355 19.5 28.9355ZM18.871 2.51614H23.9033V3.77421H18.871V2.51614ZM18.871 5.03227H23.9033V6.29034H18.871V5.03227ZM15.0968 7.5484H23.9033V8.80647H15.0968V7.5484ZM15.0968 10.0645H23.9033V11.3226H15.0968V10.0645ZM15.0968 12.5807H23.9033V13.8387H15.0968V12.5807Z" fill="url(#paint0_linear)"/>
<path d="M39 20.129V15.0968H30.1935V20.129H33.9677V26.4194H26.4194V25.3366L24.8751 24.8216L25.6029 23.366L23.1824 20.9454L21.7261 21.6739L21.2118 20.129H20.129V16.3548H26.4194V8.80645H33.9677V12.3201L32.5254 10.8779L31.6359 11.7673L34.5968 14.7282L37.5576 11.7673L36.6682 10.8779L35.2258 12.3201V7.54839H26.4194V0H16.7234L12.5806 4.14273V7.54839H3.77419V12.3201L2.33182 10.8779L1.44237 11.7673L4.40323 14.7282L7.36408 11.7673L6.47463 10.8779L5.03226 12.3201V8.80645H12.5806V16.3548H18.871V20.129H17.7882L17.2739 21.6739L15.8176 20.9454L13.397 23.366L14.125 24.8216L12.5806 25.3366V26.4194H5.03226V20.129H8.80645V15.0968H0V20.129H3.77419V30.2829C2.69147 30.564 1.8871 31.541 1.8871 32.7097C1.8871 34.0973 3.01558 35.2258 4.40323 35.2258C5.79087 35.2258 6.91935 34.0973 6.91935 32.7097C6.91935 31.541 6.11498 30.5639 5.03226 30.2829V27.6774H8.80645V35.3416C8.07599 35.602 7.54839 36.2941 7.54839 37.1129C7.54839 38.1532 8.39522 39 9.43548 39C10.4757 39 11.3226 38.1532 11.3226 37.1129C11.3226 36.2941 10.795 35.602 10.0645 35.3416V27.6774H12.5806V28.7601L14.1249 29.2752L13.397 30.7307L15.8176 33.1513L17.2739 32.4228L17.7882 33.9677H21.2111L21.7256 32.4228L23.1818 33.1513L25.6023 30.7307L24.8745 29.2752L26.4194 28.7601V27.6774H28.9355V35.3416C28.205 35.602 27.6774 36.2941 27.6774 37.1129C27.6774 38.1532 28.5243 39 29.5645 39C30.6048 39 31.4516 38.1532 31.4516 37.1129C31.4516 36.2941 30.924 35.602 30.1935 35.3416V27.6774H33.9677V30.2829C32.885 30.564 32.0806 31.541 32.0806 32.7097C32.0806 34.0973 33.2091 35.2258 34.5968 35.2258C35.9844 35.2258 37.1129 34.0973 37.1129 32.7097C37.1129 31.541 36.3085 30.5639 35.2258 30.2829V20.129H39ZM16.3548 2.14752V3.77419H14.7282L16.3548 2.14752ZM13.8387 5.03226H17.6129V1.25806H25.1613V15.0968H13.8387V5.03226ZM1.25806 16.3548H7.54839V18.871H1.25806V16.3548ZM5.66129 32.7097C5.66129 33.4035 5.09705 33.9677 4.40323 33.9677C3.7094 33.9677 3.14516 33.4035 3.14516 32.7097C3.14516 32.0159 3.7094 31.4516 4.40323 31.4516C5.09705 31.4516 5.66129 32.0159 5.66129 32.7097ZM9.43548 37.7419C9.08842 37.7419 8.80645 37.4593 8.80645 37.1129C8.80645 36.7665 9.08842 36.4839 9.43548 36.4839C9.78255 36.4839 10.0645 36.7665 10.0645 37.1129C10.0645 37.4593 9.78255 37.7419 9.43548 37.7419ZM25.1613 27.8528L23.7183 28.3341L23.6121 28.6115C23.5805 28.6919 23.5492 28.7721 23.5144 28.8498L23.3925 29.1222L24.0724 30.4823L22.9345 31.6203L21.5745 30.9402L21.3023 31.0621C21.2249 31.0968 21.1463 31.1281 21.0664 31.1586L20.7863 31.2642L20.3044 32.7097H18.695L18.213 31.2642L17.9329 31.1586C17.8534 31.1287 17.7747 31.0966 17.697 31.0622L17.425 30.9403L16.0649 31.6203L14.9269 30.4823L15.6069 29.1222L15.485 28.8498C15.4497 28.7711 15.419 28.6919 15.3873 28.6115L15.2811 28.3341L13.8387 27.8528V26.2434L15.2817 25.7621L15.3879 25.4847C15.4195 25.4043 15.4508 25.3241 15.4856 25.2461L15.6075 24.974L14.9276 23.6139L16.0655 22.476L17.4255 23.1559L17.6977 23.0341C17.775 22.9993 17.8537 22.968 17.9336 22.9376L18.2137 22.8319L18.6956 21.3871H20.305L20.787 22.8325L21.0671 22.9382C21.1469 22.9686 21.2255 22.9999 21.303 23.0346L21.575 23.1565L22.9351 22.4765L24.0731 23.6145L23.3931 24.9745L23.515 25.247C23.5503 25.3256 23.581 25.4049 23.6127 25.4853L23.7189 25.7626L25.1613 26.244V27.8528ZM29.5645 37.7419C29.2174 37.7419 28.9355 37.4593 28.9355 37.1129C28.9355 36.7665 29.2174 36.4839 29.5645 36.4839C29.9116 36.4839 30.1935 36.7665 30.1935 37.1129C30.1935 37.4593 29.9116 37.7419 29.5645 37.7419ZM35.8548 32.7097C35.8548 33.4035 35.2906 33.9677 34.5968 33.9677C33.903 33.9677 33.3387 33.4035 33.3387 32.7097C33.3387 32.0159 33.903 31.4516 34.5968 31.4516C35.2906 31.4516 35.8548 32.0159 35.8548 32.7097ZM31.4516 16.3548H37.7419V18.871H31.4516V16.3548Z" fill="url(#paint1_linear)"/>
<defs>
<linearGradient id="paint0_linear" x1="1.56004" y1="-1.56019" x2="38.22" y2="40.5598" gradientUnits="userSpaceOnUse">
<stop stop-color="#FC4647"/>
<stop offset="1" stop-color="#112F5D"/>
</linearGradient>
<linearGradient id="paint1_linear" x1="-4.25398e-08" y1="-2.34" x2="39" y2="39" gradientUnits="userSpaceOnUse">
<stop stop-color="#FC4647"/>
<stop offset="1" stop-color="#112F5D"/>
</linearGradient>
</defs>
</svg>
