<svg width="41" height="41" viewBox="0 0 41 41" fill="none" xmlns="http://www.w3.org/2000/svg">
<g clip-path="url(#clip0)">
<path d="M20.5 27.2146C18.6769 27.2146 17.1936 28.698 17.1936 30.5211C17.1936 32.3442 18.6769 33.8276 20.5 33.8276C22.3231 33.8276 23.8065 32.3442 23.8065 30.5211C23.8065 28.698 22.3231 27.2146 20.5 27.2146ZM20.5 32.505C19.4064 32.505 18.5161 31.6147 18.5161 30.5211C18.5161 29.4275 19.4064 28.5372 20.5 28.5372C21.5936 28.5372 22.4839 29.4275 22.4839 30.5211C22.4839 31.6147 21.5936 32.505 20.5 32.505ZM19.8387 4.73077H25.129V6.05335H19.8387V4.73077ZM19.8387 7.37594H25.129V8.69852H19.8387V7.37594ZM15.871 10.0211H25.129V11.3437H15.871V10.0211ZM15.871 12.6663H25.129V13.9888H15.871V12.6663ZM15.871 15.3114H25.129V16.634H15.871V15.3114Z" fill="url(#paint0_linear)"/>
<path d="M41 19.5844V14.2941H31.7419V19.5844H35.7097V26.1973H27.7742V25.059L26.1507 24.5176L26.9159 22.9874L24.3712 20.4427L22.8403 21.2085L22.2995 19.5844H21.1613V15.6166H27.7742V7.68116H35.7097V11.375L34.1933 9.85879L33.2583 10.7939L36.371 13.9065L39.4837 10.7939L38.5486 9.85879L37.0323 11.375V6.35858H27.7742V-1.5769H17.581L13.2258 2.77827V6.35858H3.96774V11.375L2.4514 9.85879L1.51634 10.7939L4.62903 13.9065L7.74173 10.7939L6.80666 9.85879L5.29032 11.375V7.68116H13.2258V15.6166H19.8387V19.5844H18.7005L18.1597 21.2085L16.6288 20.4427L14.0841 22.9874L14.8494 24.5176L13.2258 25.059V26.1973H5.29032V19.5844H9.25807V14.2941H0V19.5844H3.96774V30.259C2.8295 30.5544 1.98387 31.5816 1.98387 32.8102C1.98387 34.269 3.17023 35.4554 4.62903 35.4554C6.08784 35.4554 7.27419 34.269 7.27419 32.8102C7.27419 31.5816 6.42857 30.5544 5.29032 30.259V27.5199H9.25807V35.5771C8.49014 35.8509 7.93548 36.5784 7.93548 37.4392C7.93548 38.5328 8.82575 39.4231 9.91936 39.4231C11.013 39.4231 11.9032 38.5328 11.9032 37.4392C11.9032 36.5784 11.3486 35.8509 10.5806 35.5771V27.5199H13.2258V28.6581L14.8493 29.1995L14.0841 30.7298L16.6288 33.2745L18.1597 32.5086L18.7005 34.1328H22.2989L22.8397 32.5086L24.3706 33.2745L26.9153 30.7298L26.1501 29.1995L27.7742 28.6581V27.5199H30.4194V35.5771C29.6514 35.8509 29.0968 36.5784 29.0968 37.4392C29.0968 38.5328 29.987 39.4231 31.0806 39.4231C32.1743 39.4231 33.0645 38.5328 33.0645 37.4392C33.0645 36.5784 32.5099 35.8509 31.7419 35.5771V27.5199H35.7097V30.259C34.5714 30.5544 33.7258 31.5816 33.7258 32.8102C33.7258 34.269 34.9122 35.4554 36.371 35.4554C37.8298 35.4554 39.0161 34.269 39.0161 32.8102C39.0161 31.5816 38.1705 30.5544 37.0323 30.259V19.5844H41ZM17.1935 0.680741V2.39084H15.4835L17.1935 0.680741ZM14.5484 3.71342H18.5161V-0.254324H26.4516V14.2941H14.5484V3.71342ZM1.32258 15.6166H7.93548V18.2618H1.32258V15.6166ZM5.95161 32.8102C5.95161 33.5396 5.35844 34.1328 4.62903 34.1328C3.89963 34.1328 3.30645 33.5396 3.30645 32.8102C3.30645 32.0808 3.89963 31.4876 4.62903 31.4876C5.35844 31.4876 5.95161 32.0808 5.95161 32.8102ZM9.91936 38.1005C9.55449 38.1005 9.25807 37.8034 9.25807 37.4392C9.25807 37.075 9.55449 36.7779 9.91936 36.7779C10.2842 36.7779 10.5806 37.075 10.5806 37.4392C10.5806 37.8034 10.2842 38.1005 9.91936 38.1005ZM26.4516 27.7042L24.9346 28.2103L24.8229 28.5018C24.7897 28.5864 24.7568 28.6707 24.7203 28.7523L24.5921 29.0388L25.3069 30.4686L24.1106 31.6649L22.6809 30.95L22.3948 31.0781C22.3133 31.1146 22.2307 31.1475 22.1468 31.1795L21.8523 31.2906L21.3456 32.8102H19.6537L19.147 31.2906L18.8526 31.1795C18.7689 31.1481 18.6862 31.1143 18.6046 31.0782L18.3186 30.9501L16.8887 31.6649L15.6924 30.4686L16.4073 29.0388L16.2792 28.7523C16.242 28.6697 16.2097 28.5864 16.1764 28.5018L16.0647 28.2103L14.5484 27.7042V26.0123L16.0654 25.5063L16.1771 25.2147C16.2103 25.1301 16.2432 25.0458 16.2797 24.9638L16.4079 24.6778L15.6931 23.2479L16.8894 22.0517L18.3191 22.7665L18.6052 22.6384C18.6866 22.6019 18.7692 22.569 18.8532 22.537L19.1477 22.4259L19.6544 20.907H21.3463L21.853 22.4265L22.1474 22.5376C22.2313 22.5695 22.314 22.6025 22.3954 22.639L22.6814 22.7671L24.1113 22.0522L25.3076 23.2486L24.5927 24.6784L24.7209 24.9648C24.7581 25.0475 24.7903 25.1308 24.8236 25.2154L24.9353 25.5069L26.4516 26.013V27.7042ZM31.0806 38.1005C30.7158 38.1005 30.4194 37.8034 30.4194 37.4392C30.4194 37.075 30.7158 36.7779 31.0806 36.7779C31.4455 36.7779 31.7419 37.075 31.7419 37.4392C31.7419 37.8034 31.4455 38.1005 31.0806 38.1005ZM37.6936 32.8102C37.6936 33.5396 37.1004 34.1328 36.371 34.1328C35.6416 34.1328 35.0484 33.5396 35.0484 32.8102C35.0484 32.0808 35.6416 31.4876 36.371 31.4876C37.1004 31.4876 37.6936 32.0808 37.6936 32.8102ZM33.0645 15.6166H39.6774V18.2618H33.0645V15.6166Z" fill="url(#paint1_linear)"/>
</g>
<defs>
<linearGradient id="paint0_linear" x1="1.64001" y1="0.445394" x2="40.18" y2="44.7254" gradientUnits="userSpaceOnUse">
<stop stop-color="#FC4647"/>
<stop offset="1" stop-color="#112F5D"/>
</linearGradient>
<linearGradient id="paint1_linear" x1="-4.47214e-08" y1="-4.0369" x2="41" y2="39.4231" gradientUnits="userSpaceOnUse">
<stop stop-color="#FC4647"/>
<stop offset="1" stop-color="#112F5D"/>
</linearGradient>
<clipPath id="clip0">
<rect width="41" height="41" fill="white"/>
</clipPath>
</defs>
</svg>
