<svg width="38" height="38" viewBox="0 0 38 38" fill="none" xmlns="http://www.w3.org/2000/svg">
<path d="M19 23.2904C17.3103 23.2904 15.9355 24.6652 15.9355 26.3549C15.9355 28.0446 17.3103 29.4194 19 29.4194C20.6897 29.4194 22.0646 28.0446 22.0646 26.3549C22.0646 24.6652 20.6897 23.2904 19 23.2904ZM19 28.1936C17.9865 28.1936 17.1613 27.3685 17.1613 26.3549C17.1613 25.3413 17.9865 24.5162 19 24.5162C20.0136 24.5162 20.8388 25.3413 20.8388 26.3549C20.8388 27.3685 20.0136 28.1936 19 28.1936ZM18.3871 2.45166H23.2904V3.67747H18.3871V2.45166ZM18.3871 4.90327H23.2904V6.12908H18.3871V4.90327ZM14.7097 7.35489H23.2904V8.58069H14.7097V7.35489ZM14.7097 9.8065H23.2904V11.0323H14.7097V9.8065ZM14.7097 12.2581H23.2904V13.4839H14.7097V12.2581Z" fill="white"/>
<path d="M38 19.6129V14.7097H29.4194V19.6129H33.0968V25.7419H25.7419V24.687L24.2373 24.1852L24.9465 22.7669L22.5879 20.4084L21.1691 21.1182L20.6679 19.6129H19.6129V15.9355H25.7419V8.58065H33.0968V12.0042L31.6914 10.5989L30.8247 11.4656L33.7097 14.3505L36.5946 11.4656L35.728 10.5989L34.3226 12.0042V7.35484H25.7419V0H16.2946L12.2581 4.0365V7.35484H3.67742V12.0042L2.27203 10.5989L1.40539 11.4656L4.29032 14.3505L7.17526 11.4656L6.30861 10.5989L4.90323 12.0042V8.58065H12.2581V15.9355H18.3871V19.6129H17.3321L16.8309 21.1182L15.4121 20.4084L13.0535 22.7669L13.7628 24.1852L12.2581 24.687V25.7419H4.90323V19.6129H8.58065V14.7097H0V19.6129H3.67742V29.5065C2.62246 29.7803 1.83871 30.7323 1.83871 31.871C1.83871 33.223 2.93826 34.3226 4.29032 34.3226C5.64239 34.3226 6.74194 33.223 6.74194 31.871C6.74194 30.7323 5.95819 29.7802 4.90323 29.5065V26.9677H8.58065V34.4354C7.86891 34.6892 7.35484 35.3634 7.35484 36.1613C7.35484 37.1749 8.17996 38 9.19355 38C10.2071 38 11.0323 37.1749 11.0323 36.1613C11.0323 35.3634 10.5182 34.6892 9.80645 34.4354V26.9677H12.2581V28.0227L13.7627 28.5245L13.0535 29.9428L15.4121 32.3013L16.8309 31.5915L17.3321 33.0968H20.6672L21.1685 31.5915L22.5874 32.3013L24.9459 29.9428L24.2366 28.5245L25.7419 28.0227V26.9677H28.1935V34.4354C27.4818 34.6892 26.9677 35.3634 26.9677 36.1613C26.9677 37.1749 27.7929 38 28.8065 38C29.82 38 30.6452 37.1749 30.6452 36.1613C30.6452 35.3634 30.1311 34.6892 29.4194 34.4354V26.9677H33.0968V29.5065C32.0418 29.7803 31.2581 30.7323 31.2581 31.871C31.2581 33.223 32.3576 34.3226 33.7097 34.3226C35.0617 34.3226 36.1613 33.223 36.1613 31.871C36.1613 30.7323 35.3775 29.7802 34.3226 29.5065V19.6129H38ZM15.9355 2.09245V3.67742H14.3505L15.9355 2.09245ZM13.4839 4.90323H17.1613V1.22581H24.5161V14.7097H13.4839V4.90323ZM1.22581 15.9355H7.35484V18.3871H1.22581V15.9355ZM5.51613 31.871C5.51613 32.547 4.96635 33.0968 4.29032 33.0968C3.61429 33.0968 3.06452 32.547 3.06452 31.871C3.06452 31.1949 3.61429 30.6452 4.29032 30.6452C4.96635 30.6452 5.51613 31.1949 5.51613 31.871ZM9.19355 36.7742C8.85538 36.7742 8.58065 36.4988 8.58065 36.1613C8.58065 35.8237 8.85538 35.5484 9.19355 35.5484C9.53172 35.5484 9.80645 35.8237 9.80645 36.1613C9.80645 36.4988 9.53172 36.7742 9.19355 36.7742ZM24.5161 27.1386L23.1101 27.6076L23.0066 27.8778C22.9758 27.9562 22.9453 28.0343 22.9115 28.11L22.7926 28.3755L23.4552 29.7007L22.3465 30.8095L21.0213 30.1469L20.7561 30.2656C20.6807 30.2995 20.604 30.33 20.5263 30.3596L20.2533 30.4626L19.7838 31.871H18.2156L17.746 30.4626L17.4731 30.3596C17.3956 30.3305 17.319 30.2992 17.2433 30.2657L16.9782 30.1469L15.6529 30.8095L14.5442 29.7007L15.2067 28.3755L15.088 28.11C15.0535 28.0334 15.0236 27.9562 14.9928 27.8778L14.8893 27.6076L13.4839 27.1386V25.5705L14.8899 25.1015L14.9934 24.8312C15.0242 24.7529 15.0547 24.6747 15.0885 24.5987L15.2074 24.3336L14.5448 23.0084L15.6535 21.8996L16.9787 22.5622L17.2439 22.4434C17.3193 22.4096 17.3959 22.3791 17.4737 22.3494L17.7467 22.2465L18.2163 20.8387H19.7844L20.254 22.2471L20.5269 22.3501C20.6047 22.3796 20.6813 22.4102 20.7567 22.444L21.0218 22.5627L22.3471 21.9002L23.4558 23.009L22.7933 24.3342L22.912 24.5996C22.9465 24.6763 22.9764 24.7535 23.0072 24.8319L23.1107 25.1021L24.5161 25.5711V27.1386ZM28.8065 36.7742C28.4683 36.7742 28.1935 36.4988 28.1935 36.1613C28.1935 35.8237 28.4683 35.5484 28.8065 35.5484C29.1446 35.5484 29.4194 35.8237 29.4194 36.1613C29.4194 36.4988 29.1446 36.7742 28.8065 36.7742ZM34.9355 31.871C34.9355 32.547 34.3857 33.0968 33.7097 33.0968C33.0336 33.0968 32.4839 32.547 32.4839 31.871C32.4839 31.1949 33.0336 30.6452 33.7097 30.6452C34.3857 30.6452 34.9355 31.1949 34.9355 31.871ZM30.6452 15.9355H36.7742V18.3871H30.6452V15.9355Z" fill="white"/>
</svg>
