<svg width="55" height="57" viewBox="0 0 55 57" fill="none" xmlns="http://www.w3.org/2000/svg">
<path d="M20.2316 44.0525C17.8248 44.0525 15.8667 46.074 15.8667 48.5587C15.8667 51.0434 17.8248 53.0648 20.2316 53.0648C22.6384 53.0648 24.5964 51.0434 24.5964 48.5587C24.5964 46.074 22.6384 44.0525 20.2316 44.0525ZM20.2316 51.2624C18.7877 51.2624 17.6127 50.0493 17.6127 48.5587C17.6127 47.068 18.7877 45.855 20.2316 45.855C21.6755 45.855 22.8505 47.068 22.8505 48.5587C22.8505 50.0493 21.6755 51.2624 20.2316 51.2624Z" fill="white"/>
<path d="M8.00993 31.438C5.60312 31.438 3.64502 33.4589 3.64502 35.943C3.64502 38.4271 5.60312 40.448 8.00993 40.448C10.4167 40.448 12.3748 38.4271 12.3748 35.943C12.3748 33.4589 10.4167 31.438 8.00993 31.438ZM8.00993 38.646C6.56602 38.646 5.39098 37.4333 5.39098 35.943C5.39098 34.4527 6.56602 33.24 8.00993 33.24C9.45384 33.24 10.6289 34.4527 10.6289 35.943C10.6289 37.4333 9.45384 38.646 8.00993 38.646Z" fill="white"/>
<path d="M46.4209 18.8223C44.9769 18.8223 43.8019 20.0347 43.8019 21.5245C43.8019 23.0144 44.9769 24.2268 46.4209 24.2268C47.8648 24.2268 49.0398 23.0144 49.0398 21.5245C49.0398 20.0347 47.8648 18.8223 46.4209 18.8223ZM46.4209 22.4253C45.939 22.4253 45.5479 22.0208 45.5479 21.5245C45.5479 21.0282 45.939 20.6238 46.4209 20.6238C46.9027 20.6238 47.2938 21.0282 47.2938 21.5245C47.2938 22.0208 46.9027 22.4253 46.4209 22.4253Z" fill="white"/>
<path d="M39.437 17.02C40.8809 17.02 42.0559 15.8066 42.0559 14.3157C42.0559 12.8247 40.8809 11.6113 39.437 11.6113C37.9931 11.6113 36.8181 12.8247 36.8181 14.3157C36.8181 15.8066 37.9931 17.02 39.437 17.02ZM39.437 13.4142C39.9189 13.4142 40.31 13.819 40.31 14.3157C40.31 14.8123 39.9189 15.2171 39.437 15.2171C38.9551 15.2171 38.564 14.8123 38.564 14.3157C38.564 13.819 38.9551 13.4142 39.437 13.4142Z" fill="white"/>
<path d="M37.0679 22.6917L47.5423 11.8792L48.7767 13.1534L38.3023 23.9659L37.0679 22.6917Z" fill="white"/>
<path d="M50.7901 3.31897L48.1712 1.51674L45.5488 3.31897L42.9246 1.51674L40.3074 3.31897L37.6894 1.51674L35.0722 3.31897L31.5803 0.915696V9.47179L28.2691 10.937L22.1399 28.4493L13.8353 30.5183C12.3966 28.8728 10.3215 27.8311 8.00988 27.8311C3.67729 27.8311 0.153076 31.4698 0.153076 35.9412C0.153076 40.4125 3.67729 44.0512 8.00988 44.0512C11.1928 44.0512 13.9339 42.0841 15.1674 39.2681L18.6899 38.3084L17.8012 40.8486C14.6559 41.9084 12.3748 44.9613 12.3748 48.5568C12.3748 53.0281 15.899 56.6668 20.2316 56.6668C24.5641 56.6668 28.0884 53.0281 28.0884 48.5568C28.0884 46.4094 27.2695 44.4594 25.9452 43.0068L28.2874 35.6934L31.5803 34.7968V42.1309L35.0722 39.7277L37.6946 41.5299L40.3135 39.7277L42.9316 41.5299L45.5488 39.7277L48.1634 41.5299L50.7823 39.7277L54.2777 42.1291V0.914795L50.7901 3.31897ZM8.00988 42.249C4.64105 42.249 1.89903 39.4195 1.89903 35.9412C1.89903 32.4629 4.64105 29.6334 8.00988 29.6334C11.3787 29.6334 14.1207 32.4629 14.1207 35.9412C14.1207 39.4195 11.3787 42.249 8.00988 42.249ZM15.7558 37.2442C15.823 36.8189 15.8667 36.3854 15.8667 35.9412C15.8667 34.5526 15.5253 33.2441 14.9274 32.1006L21.4293 30.4804L19.411 36.2485L15.7558 37.2442ZM29.6536 12.2851L34.6523 10.0737L24.5057 41.7606C23.2739 40.9325 21.8082 40.4468 20.2316 40.4468C20.0823 40.4468 19.9365 40.4612 19.7898 40.4702L29.6536 12.2851ZM20.2316 54.8646C16.8627 54.8646 14.1207 52.0351 14.1207 48.5568C14.1207 45.0785 16.8627 42.249 20.2316 42.249C23.6004 42.249 26.3424 45.0785 26.3424 48.5568C26.3424 52.0351 23.6004 54.8646 20.2316 54.8646ZM28.9404 33.6523L31.5803 25.4089V32.9323L28.9404 33.6523ZM52.5317 38.7644L50.7823 37.5623L48.1634 39.3645L45.5488 37.5623L42.9316 39.3645L40.3135 37.5623L37.6946 39.3645L35.0722 37.5623L33.3262 38.7635V19.9572L37.1534 8.00658H34.8932L33.3262 8.69954V4.28407L35.0722 5.48526L37.6894 3.68302L40.3074 5.48526L42.9264 3.68302L45.5488 5.48526L48.1712 3.68302L50.7901 5.48526L52.5317 4.28497V38.7644Z" fill="white"/>
<path d="M11.502 17.0196C10.5391 17.0196 9.756 16.2113 9.756 15.2174H8.01004C8.01004 16.8916 9.12658 18.2909 10.629 18.6937V20.6238H12.3749V18.8217H14.9939V15.2174C14.9939 13.2297 13.4278 11.6132 11.502 11.6132C10.5391 11.6132 9.756 10.805 9.756 9.81111V8.009H11.502C12.4649 8.009 13.2479 8.81725 13.2479 9.81111H14.9939C14.9939 8.13695 13.8773 6.73762 12.3749 6.33484V4.40479H10.629V6.20689H8.01004V9.81111C8.01004 11.7988 9.57617 13.4153 11.502 13.4153C12.4649 13.4153 13.2479 14.2236 13.2479 15.2174V17.0196H11.502Z" fill="white"/>
<path d="M11.5018 24.2271C17.7593 24.2271 22.8505 18.9717 22.8505 12.5125C22.8505 6.05321 17.7593 0.797852 11.5018 0.797852C5.24428 0.797852 0.153076 6.05321 0.153076 12.5125C0.153076 18.9717 5.24428 24.2271 11.5018 24.2271ZM11.5018 2.6001C16.7964 2.6001 21.1045 7.04715 21.1045 12.5125C21.1045 17.9778 16.7964 22.4248 11.5018 22.4248C6.20717 22.4248 1.89903 17.9778 1.89903 12.5125C1.89903 7.04715 6.20717 2.6001 11.5018 2.6001Z" fill="white"/>
<path d="M36.8181 33.2393H45.5479V35.0406H36.8181V33.2393Z" fill="white"/>
<path d="M47.2939 33.2393H49.0398V35.0406H47.2939V33.2393Z" fill="white"/>
<path d="M36.8181 29.6357H49.0398V31.4368H36.8181V29.6357Z" fill="white"/>
<path d="M36.8181 26.0312H49.0398V27.8297H36.8181V26.0312Z" fill="white"/>
<path d="M23.3344 34.9944L23.9835 33.3217L25.6043 33.9929L24.9552 35.6656L23.3344 34.9944Z" fill="white"/>
<path d="M24.6338 31.6472L25.2828 29.9757L26.9037 30.6464L26.2546 32.318L24.6338 31.6472Z" fill="white"/>
<path d="M22.0362 38.3418L22.6853 36.6704L24.3061 37.3411L23.6571 39.0125L22.0362 38.3418Z" fill="white"/>
</svg>
