<svg width="52" height="57" viewBox="0 0 52 57" fill="none" xmlns="http://www.w3.org/2000/svg">
<path d="M47.3905 0.293213H24.1495C21.8611 0.293213 19.9993 2.34244 19.9993 4.86127V19.479C19.9993 21.9979 21.8611 24.0471 24.1495 24.0471H25.4659L20.9721 28.9934C20.7065 29.2857 20.3653 29.4584 19.9993 29.5078V28.6152C19.9993 27.6074 19.2548 26.7879 18.3392 26.7879H13.7168L10.4539 13.3222C10.0961 11.8486 8.70002 10.9624 7.34623 11.3461L5.0545 11.9947L5.05865 12.7083C5.06031 13.0015 5.12754 19.5512 6.94532 27.855C3.02423 28.606 0.0784302 32.3546 0.0784302 36.8377V56.9371H18.3392V56.0235C18.3392 53.5047 16.4775 51.4554 14.189 51.4554H5.05865V37.7513C5.05865 35.5723 6.46058 33.746 8.34393 33.3047C10.4331 40.4236 12.8875 45.2739 13.0079 45.5087L13.3208 46.1209L15.6018 45.4749C16.2675 45.2867 16.8236 44.8263 17.1672 44.1794C17.5059 43.5417 17.598 42.7981 17.4254 42.0864L17.2593 41.4057H18.3392C19.2548 41.4057 19.9993 40.5862 19.9993 39.5785H32.6814C33.1296 39.5785 33.5795 39.5337 34.0178 39.4451L41.2831 37.9916C42.2841 37.7906 43.193 37.2671 43.9135 36.474L48.1184 31.8448C48.7111 31.1943 49.0506 30.2935 49.0506 29.3725C49.0506 27.443 47.6254 25.8743 45.8724 25.8743C45.0996 25.8743 44.3775 26.1886 43.7998 26.7413C43.232 26.1904 42.5057 25.8743 41.7222 25.8743C40.8739 25.8743 40.0754 26.2379 39.4753 26.8994L35.4263 31.356H31.7219L29.553 30.7603C29.304 30.6918 29.1297 30.4451 29.1297 30.1628C29.1297 29.9984 29.1878 29.8431 29.2932 29.727L32.3486 26.364C32.9147 25.7409 33.2301 24.9223 33.2658 24.0471H47.3905C49.6789 24.0471 51.5407 21.9979 51.5407 19.479V4.86127C51.5407 2.34244 49.6789 0.293213 47.3905 0.293213ZM14.189 53.2827C15.2714 53.2827 16.1944 54.0464 16.5372 55.1099H2.91217L4.57225 53.2827H14.189ZM3.39857 37.7513V51.9908L1.7385 53.818V36.8377C1.7385 33.2061 4.1564 30.171 7.35453 29.6265C7.51389 30.2807 7.67907 30.9175 7.84757 31.5442C5.28525 32.2221 3.39857 34.7574 3.39857 37.7513ZM15.7337 43.2558C15.615 43.4787 15.4216 43.6377 15.1884 43.7034L14.155 43.9958C13.2876 42.1668 10.7228 36.4366 8.94903 29.1158C7.18188 21.8243 6.81334 15.4756 6.73781 13.4044L7.75875 13.1157C8.23437 12.9824 8.72575 13.2838 8.84859 13.7936L15.8192 42.5569C15.8782 42.7944 15.8475 43.042 15.7337 43.2558ZM18.3392 39.5785H16.8169L14.16 28.6152H18.3392V39.5785ZM49.8806 5.77488V7.6021H21.6594V5.77488H49.8806ZM24.1495 2.12044H47.3905C48.4712 2.12044 49.3842 2.88695 49.7279 3.94766H21.8121C22.1557 2.88695 23.0688 2.12044 24.1495 2.12044ZM40.6489 28.1912C40.9361 27.8751 41.3171 27.7015 41.7222 27.7015C42.0459 27.7015 42.3447 27.8258 42.5979 28.0304L39.8197 31.0883C39.6629 31.261 39.4537 31.356 39.2321 31.356H37.7737L40.6489 28.1912ZM31.1749 25.0722L28.1195 28.4352C27.7004 28.8965 27.4696 29.5096 27.4696 30.1619C27.4696 31.2847 28.161 32.2596 29.1504 32.5318L31.4181 33.1558L39.2321 33.1832C39.8969 33.1832 40.5228 32.8982 40.9934 32.3801L44.7991 28.1912C45.0863 27.8751 45.4673 27.7015 45.8724 27.7015C46.7099 27.7015 47.3905 28.4507 47.3905 29.3725C47.3905 29.812 47.2286 30.2423 46.9456 30.5529L42.7398 35.1822C42.2592 35.7103 41.6525 36.0602 40.9859 36.1936L33.7198 37.648C33.3795 37.7166 33.03 37.7513 32.6814 37.7513H19.9993V31.3341C20.8086 31.2802 21.5664 30.922 22.1458 30.2852L29.0284 22.7096C29.3156 22.3935 29.6966 22.2199 30.1017 22.2199C30.9392 22.2199 31.6198 22.969 31.6198 23.8909C31.6198 24.3367 31.4621 24.7561 31.1749 25.0722ZM47.3905 22.2199H32.8765C32.3361 21.1373 31.3019 20.3927 30.1017 20.3927C29.2534 20.3927 28.4549 20.7563 27.8548 21.4177L27.126 22.2199H24.1495C22.7766 22.2199 21.6594 20.9902 21.6594 19.479V9.42932H49.8806V19.479C49.8806 20.9902 48.7634 22.2199 47.3905 22.2199Z" fill="white"/>
<path d="M42.7034 10.2932C42.098 10.2932 41.5382 10.4843 41.0496 10.7959C40.5453 10.4726 39.9764 10.2932 39.3909 10.2932C37.564 10.2932 36.0784 11.9182 36.0784 13.9163C36.0784 15.9144 37.564 17.5394 39.3909 17.5394C39.9764 17.5394 40.5453 17.36 41.0496 17.0367C41.5382 17.3483 42.098 17.5394 42.7034 17.5394C44.5302 17.5394 46.0159 15.9144 46.0159 13.9163C46.0159 11.9182 44.5302 10.2932 42.7034 10.2932ZM37.7346 13.9163C37.7346 12.9172 38.4774 12.1048 39.3909 12.1048C39.5482 12.1048 39.6873 12.1337 39.8174 12.1736C39.554 12.6926 39.3909 13.2813 39.3909 13.9163C39.3909 14.5512 39.554 15.14 39.8174 15.659C39.6873 15.6988 39.5482 15.7278 39.3909 15.7278C38.4774 15.7278 37.7346 14.9154 37.7346 13.9163ZM42.7034 15.7278C41.7899 15.7278 41.0471 14.9154 41.0471 13.9163C41.0471 12.9172 41.7899 12.1048 42.7034 12.1048C43.6168 12.1048 44.3596 12.9172 44.3596 13.9163C44.3596 14.9154 43.6168 15.7278 42.7034 15.7278Z" fill="white"/>
</svg>
