<svg width="52" height="54" viewBox="0 0 52 54" fill="none" xmlns="http://www.w3.org/2000/svg">
<path d="M51.1985 40.5612L48.7416 36.7557C47.9748 35.5701 46.6927 34.8611 45.3109 34.8611H39.6558V34.0099C39.6558 33.0805 39.1669 32.2728 38.4455 31.8268L44.7626 21.3926C45.7363 19.784 46.2516 17.9302 46.2516 16.0338C46.2516 10.458 41.858 5.92228 36.4568 5.92228H36.2589H24.6635C24.3221 4.9341 23.4152 4.21999 22.3417 4.21999H19.785C19.4025 2.28024 17.737 0.81543 15.7459 0.81543C13.7548 0.81543 12.0893 2.28024 11.7068 4.21999H9.15008C8.07661 4.21999 7.16968 4.9341 6.82835 5.92228H4.20321C1.93012 5.92228 0.0808105 7.83139 0.0808105 10.178V44.2236C0.0808105 46.5702 1.93012 48.4793 4.20321 48.4793H19.8683V50.1816H23.2495C23.6329 52.1214 25.2975 53.5862 27.2886 53.5862C29.2797 53.5862 30.9444 52.1214 31.3277 50.1816H39.7391C40.1225 52.1214 41.7871 53.5862 43.7782 53.5862C45.7693 53.5862 47.4339 52.1214 47.8173 50.1816H51.1985V40.5612ZM49.5495 41.6702H45.4272C44.9729 41.6702 44.6027 41.288 44.6027 40.8191C44.6027 40.3501 44.9729 39.9679 45.4272 39.9679H48.8339L49.5495 41.077V41.6702ZM19.8683 34.0099V43.3725H5.02768V11.0291H6.82835C7.16968 12.0173 8.07661 12.7314 9.15008 12.7314H22.3417C23.4152 12.7314 24.3221 12.0173 24.6635 11.0291H26.4641V31.4565H22.3417C20.9781 31.4565 19.8683 32.6022 19.8683 34.0099ZM28.1131 21.6573L29.7621 24.381V31.4565H28.1131V21.6573ZM31.411 27.1046L34.046 31.4565H31.411V27.1046ZM36.4568 7.62456C40.9486 7.62456 44.6027 11.3968 44.6027 16.0338C44.6027 17.6119 44.1739 19.1524 43.3643 20.4904L36.9202 31.1348C36.6761 31.5382 36.0405 31.5382 35.7964 31.1348L29.3523 20.4904C28.5418 19.1524 28.1131 17.611 28.1131 16.0338C28.1131 11.3968 31.7672 7.62456 36.2589 7.62456H36.4568ZM28.0397 10.5533C27.8385 9.84689 27.2128 9.32684 26.4641 9.32684H24.8152V7.62456H30.8289C29.7159 8.39314 28.7677 9.39323 28.0397 10.5533ZM8.3256 6.77342C8.3256 6.30444 8.69579 5.92228 9.15008 5.92228H13.2725V5.07114C13.2725 3.66335 14.3822 2.51771 15.7459 2.51771C17.1096 2.51771 18.2193 3.66335 18.2193 5.07114V5.92228H22.3417C22.796 5.92228 23.1662 6.30444 23.1662 6.77342V10.178C23.1662 10.647 22.796 11.0291 22.3417 11.0291H9.15008C8.69579 11.0291 8.3256 10.647 8.3256 10.178V6.77342ZM4.20321 46.7771C2.83952 46.7771 1.72977 45.6314 1.72977 44.2236V10.178C1.72977 8.7702 2.83952 7.62456 4.20321 7.62456H6.67664V9.32684H5.02768C4.11828 9.32684 3.37873 10.0903 3.37873 11.0291V43.3725C3.37873 44.3113 4.11828 45.0748 5.02768 45.0748H19.8683V46.7771H4.20321ZM27.2886 51.8839C25.9249 51.8839 24.8152 50.7383 24.8152 49.3305C24.8152 47.9227 25.9249 46.7771 27.2886 46.7771C28.6523 46.7771 29.7621 47.9227 29.7621 49.3305C29.7621 50.7383 28.6523 51.8839 27.2886 51.8839ZM27.2886 45.0748C25.2983 45.0748 23.6329 46.5396 23.2495 48.4793H21.5173V34.0099C21.5173 33.541 21.8875 33.1588 22.3417 33.1588H37.1824C37.6367 33.1588 38.0068 33.541 38.0068 34.0099V48.4793H31.3277C30.9444 46.5396 29.2789 45.0748 27.2886 45.0748ZM43.7782 51.8839C42.4145 51.8839 41.3048 50.7383 41.3048 49.3305C41.3048 47.9227 42.4145 46.7771 43.7782 46.7771C45.1419 46.7771 46.2516 47.9227 46.2516 49.3305C46.2516 50.7383 45.1419 51.8839 43.7782 51.8839ZM47.8173 48.4793C47.4339 46.5396 45.7693 45.0748 43.7782 45.0748C41.7871 45.0748 40.1225 46.5396 39.7391 48.4793H39.6558V36.5634H45.3109C46.1395 36.5634 46.9087 36.9889 47.3688 37.7005L47.734 38.2656H45.4272C44.0635 38.2656 42.9537 39.4113 42.9537 40.8191C42.9537 42.2269 44.0635 43.3725 45.4272 43.3725H49.5495V48.4793H47.8173Z" fill="white"/>
<path d="M36.3577 22.9436C39.9945 22.9436 42.9536 19.889 42.9536 16.1348C42.9536 12.3805 39.9945 9.32593 36.3577 9.32593C32.721 9.32593 29.7619 12.3805 29.7619 16.1348C29.7619 19.889 32.721 22.9436 36.3577 22.9436ZM36.3577 11.0281C39.0859 11.0281 41.3046 13.3185 41.3046 16.1348C41.3046 18.9511 39.0859 21.2414 36.3577 21.2414C33.6295 21.2414 31.4109 18.9511 31.4109 16.1348C31.4109 13.3185 33.6295 11.0281 36.3577 11.0281Z" fill="white"/>
<path d="M39.6558 16.1343H38.0069C38.0069 17.0733 37.2673 17.8369 36.3579 17.8369V19.5395C38.1767 19.5395 39.6558 18.0123 39.6558 16.1343Z" fill="white"/>
<path d="M9.97437 7.62427H11.6233V9.32465H9.97437V7.62427Z" fill="white"/>
<path d="M19.8683 7.62427H21.5172V9.32465H19.8683V7.62427Z" fill="white"/>
<path d="M24.8151 27.1991V16.9871C24.8151 15.5795 23.7053 14.4341 22.3416 14.4341H9.14995C7.78626 14.4341 6.67651 15.5795 6.67651 16.9871V27.1991C6.67651 28.6067 7.78626 29.7521 9.14995 29.7521H22.3416C23.7053 29.7521 24.8151 28.6067 24.8151 27.1991ZM13.2723 16.1361H18.2192V19.5401H13.2723V16.1361ZM8.32547 27.1991V16.9871C8.32547 16.5182 8.69566 16.1361 9.14995 16.1361H11.6234V21.2421H19.8682V16.1361H22.3416C22.7959 16.1361 23.1661 16.5182 23.1661 16.9871V27.1991C23.1661 27.668 22.7959 28.0501 22.3416 28.0501H9.14995C8.69566 28.0501 8.32547 27.668 8.32547 27.1991Z" fill="white"/>
<path d="M6.67651 31.4565H18.2192V33.1553H6.67651V31.4565Z" fill="white"/>
<path d="M6.67651 34.8599H18.2192V36.5612H6.67651V34.8599Z" fill="white"/>
<path d="M13.2725 38.2642H14.9215V39.9636H13.2725V38.2642Z" fill="white"/>
<path d="M9.97437 38.2642H11.6233V39.9636H9.97437V38.2642Z" fill="white"/>
<path d="M16.5704 38.2642H18.2194V39.9636H16.5704V38.2642Z" fill="white"/>
<path d="M34.7088 34.8599H36.3578V36.5612H34.7088V34.8599Z" fill="white"/>
<path d="M28.1131 34.8599H29.7621V36.5612H28.1131V34.8599Z" fill="white"/>
<path d="M31.4109 34.8599H33.0599V36.5612H31.4109V34.8599Z" fill="white"/>
<path d="M23.1661 39.9661H24.8151V41.6681H23.1661V39.9661Z" fill="white"/>
<path d="M23.1661 36.5627H24.8151V38.262H23.1661V36.5627Z" fill="white"/>
<path d="M23.1661 43.3721H24.8151V45.0718H23.1661V43.3721Z" fill="white"/>
</svg>
