<svg width="55" height="61" viewBox="0 0 55 61" fill="none" xmlns="http://www.w3.org/2000/svg">
<path d="M43.8019 48.4666C41.8761 48.4666 40.31 50.1947 40.31 52.3197C40.31 54.4447 41.8761 56.1729 43.8019 56.1729C45.7277 56.1729 47.2938 54.4447 47.2938 52.3197C47.2938 50.1947 45.7277 48.4666 43.8019 48.4666ZM43.8019 54.2463C42.839 54.2463 42.0559 53.3822 42.0559 52.3197C42.0559 51.2572 42.839 50.3931 43.8019 50.3931C44.7648 50.3931 45.5479 51.2572 45.5479 52.3197C45.5479 53.3822 44.7648 54.2463 43.8019 54.2463Z" fill="white"/>
<path d="M12.3747 48.4666C10.449 48.4666 8.88287 50.1947 8.88287 52.3197C8.88287 54.4447 10.449 56.1729 12.3747 56.1729C14.3005 56.1729 15.8666 54.4447 15.8666 52.3197C15.8666 50.1947 14.3005 48.4666 12.3747 48.4666ZM12.3747 54.2463C11.4119 54.2463 10.6288 53.3822 10.6288 52.3197C10.6288 51.2572 11.4119 50.3931 12.3747 50.3931C13.3376 50.3931 14.1207 51.2572 14.1207 52.3197C14.1207 53.3822 13.3376 54.2463 12.3747 54.2463Z" fill="white"/>
<path d="M52.3344 31.0098C53.4501 30.6783 54.2777 29.5634 54.2777 28.2288C54.2777 26.635 53.1027 25.338 51.6588 25.338H34.984C34.6697 21.8614 33.5026 18.6661 31.7357 15.9795C32.7396 14.9003 33.3262 13.4193 33.3262 11.8476C33.3262 8.65907 30.977 6.06602 28.0884 6.06602C26.1346 6.06602 24.3826 7.26956 23.486 9.13894C22.7126 8.83348 21.9234 8.5656 21.1045 8.38155V6.06602C22.5484 6.06602 23.7235 4.76902 23.7235 3.17522C23.7235 1.58143 22.5484 0.284424 21.1045 0.284424H14.1207C12.6768 0.284424 11.5018 1.58143 11.5018 3.17522C11.5018 4.76902 12.6768 6.06602 14.1207 6.06602V8.38155C13.3019 8.5656 12.5127 8.83252 11.7392 9.13894C10.8427 7.26956 9.09062 6.06602 7.1369 6.06602C4.24821 6.06602 1.89903 8.65907 1.89903 11.8476C1.89903 13.4193 2.48567 14.9003 3.4896 15.9795C1.40056 19.1565 0.153076 23.0485 0.153076 27.2652C0.153076 34.8998 4.20631 41.4918 10.0526 44.61H2.77201C1.3281 44.61 0.153076 45.907 0.153076 47.5008V49.428C0.153076 51.0218 1.3281 52.3188 2.77201 52.3188H5.39094C5.39094 56.5693 8.52406 60.0276 12.3748 60.0276C16.2255 60.0276 19.3586 56.5693 19.3586 52.3188H36.8181C36.8181 56.5693 39.9513 60.0276 43.802 60.0276C47.6527 60.0276 50.7858 56.5693 50.7858 52.3188H51.6588C53.1027 52.3188 54.2777 51.0218 54.2777 49.428V35.9376C54.2777 34.0692 53.5592 32.2759 52.3344 31.0098ZM51.6588 27.2652C52.1398 27.2652 52.5317 27.6979 52.5317 28.2288C52.5317 28.7598 52.1398 29.1924 51.6588 29.1924H48.1668H46.4209H35.0722V27.2652H51.6588ZM28.0884 7.99322C30.0142 7.99322 31.5803 9.72192 31.5803 11.8476C31.5803 12.8334 31.2346 13.7671 30.6357 14.4734C29.0967 12.5665 27.2232 11.0025 25.1133 9.88862C25.7313 8.73327 26.8461 7.99322 28.0884 7.99322ZM13.2477 3.17522C13.2477 2.64428 13.6397 2.21162 14.1207 2.21162H21.1045C21.5856 2.21162 21.9775 2.64428 21.9775 3.17522C21.9775 3.70617 21.5856 4.13882 21.1045 4.13882H14.1207C13.6397 4.13882 13.2477 3.70617 13.2477 3.17522ZM15.8667 6.06602H19.3586V8.09055C18.7842 8.02791 18.2019 7.99322 17.6126 7.99322C17.0234 7.99322 16.4411 8.02791 15.8667 8.09055V6.06602ZM3.64499 11.8476C3.64499 9.72192 5.21111 7.99322 7.1369 7.99322C8.37914 7.99322 9.49394 8.73327 10.112 9.88862C8.00202 11.0025 6.12861 12.5665 4.58955 14.4734C3.99069 13.7671 3.64499 12.8334 3.64499 11.8476ZM1.89903 27.2652C1.89903 17.7015 8.94833 9.92042 17.6126 9.92042C26.2769 9.92042 33.3262 17.7015 33.3262 27.2652C33.3262 36.8289 26.2769 44.61 17.6126 44.61C8.94833 44.61 1.89903 36.8289 1.89903 27.2652ZM33.3262 35.61V44.61H25.1726C28.7283 42.7136 31.6082 39.5347 33.3262 35.61ZM2.77201 50.3916C2.291 50.3916 1.89903 49.9599 1.89903 49.428V47.5008C1.89903 46.9689 2.291 46.5372 2.77201 46.5372H7.77068C6.7362 47.5422 5.97584 48.8759 5.62054 50.3916H2.77201ZM12.3748 58.1004C9.48608 58.1004 7.1369 55.5074 7.1369 52.3188C7.1369 49.1303 9.48608 46.5372 12.3748 46.5372C15.2634 46.5372 17.6126 49.1303 17.6126 52.3188C17.6126 55.5074 15.2634 58.1004 12.3748 58.1004ZM43.802 58.1004C40.9133 58.1004 38.5641 55.5074 38.5641 52.3188C38.5641 49.1303 40.9133 46.5372 43.802 46.5372C46.6906 46.5372 49.0398 49.1303 49.0398 52.3188C49.0398 55.5074 46.6906 58.1004 43.802 58.1004ZM51.6588 50.3916H50.5562C49.7775 47.072 47.0494 44.61 43.802 44.61C40.5545 44.61 37.8264 47.072 37.0477 50.3916H19.129C18.7737 48.8759 18.0133 47.5422 16.9788 46.5372H35.0722V31.1196H36.8181V38.8284H40.2027C41.9207 38.8284 43.4109 40.1129 43.8281 41.9524L43.9931 42.6828H52.5317V49.428C52.5317 49.9599 52.1398 50.3916 51.6588 50.3916ZM52.5317 40.7556H45.3113C44.5012 38.4526 42.489 36.9012 40.2018 36.9012H38.5641V31.1196H46.4209H48.1668C49.1053 31.1196 50.0359 31.4617 50.7858 32.0832C51.8787 32.988 52.5317 34.4296 52.5317 35.9376V40.7556Z" fill="white"/>
<path d="M36.8181 40.7561H42.0559V42.6804H36.8181V40.7561Z" fill="white"/>
<path d="M31.5803 27.2652C31.5803 18.764 25.3141 11.8469 17.6127 11.8469C9.91125 11.8469 3.64502 18.764 3.64502 27.2652C3.64502 35.7665 9.91125 42.6836 17.6127 42.6836C25.3141 42.6836 31.5803 35.7665 31.5803 27.2652ZM5.4355 28.2289H7.13693V26.3016H5.4355C5.865 19.6322 10.6978 14.2975 16.7397 13.8234V15.7015H18.4856V13.8234C24.5275 14.2975 29.3603 19.6322 29.7898 26.3016H28.0884V28.2289H29.7898C29.3603 34.8983 24.5275 40.233 18.4856 40.7071V38.829H16.7397V40.7071C10.6978 40.233 5.865 34.8983 5.4355 28.2289Z" fill="white"/>
<path d="M21.9775 36.9018C24.3843 36.9018 26.3424 34.7406 26.3424 32.0841V22.4486C26.3424 19.7921 24.3843 17.6309 21.9775 17.6309H13.2478C10.841 17.6309 8.88287 19.7921 8.88287 22.4486V32.0841C8.88287 34.7406 10.841 36.9018 13.2478 36.9018H21.9775ZM15.8667 19.558H19.3586V21.485H15.8667V19.558ZM10.6288 32.0841V22.4486C10.6288 20.8549 11.8038 19.558 13.2478 19.558H14.1207V23.4121H21.1045V19.558H21.9775C23.4214 19.558 24.5964 20.8549 24.5964 22.4486V32.0841C24.5964 33.6778 23.4214 34.9747 21.9775 34.9747H13.2478C11.8038 34.9747 10.6288 33.6778 10.6288 32.0841Z" fill="white"/>
</svg>
