<svg width="48" height="52" viewBox="0 0 48 52" fill="none" xmlns="http://www.w3.org/2000/svg">
<path d="M45.0001 43.1888V37.36L42.9003 36.7895C42.8857 36.7518 42.8712 36.7142 42.856 36.6768L43.9613 34.6959L40.0849 30.5742L38.2219 31.7495C38.1861 31.7333 38.1506 31.7178 38.1159 31.7024L37.5793 29.4705H32.0975L31.561 31.7031C31.5255 31.7186 31.4901 31.734 31.455 31.7502L29.5919 30.5749L25.7155 34.6966L26.8209 36.6776C26.8056 36.7157 26.7911 36.7533 26.7766 36.7903L24.6775 37.3608V43.1895L26.7773 43.76C26.7918 43.7977 26.8064 43.8354 26.8216 43.8727L25.7162 45.8537L29.5926 49.9754L31.4557 48.8C31.4915 48.8162 31.5269 48.8317 31.5617 48.8471L32.0982 51.0791H37.58L38.1166 48.8464C38.152 48.8309 38.1875 48.8155 38.2226 48.7993L40.0856 49.9746L43.962 45.8529L42.8567 43.8719C42.8719 43.8339 42.8864 43.7962 42.901 43.7593L45.0001 43.1888ZM42.1383 45.6098L39.8563 48.0362L38.3051 47.0576L37.9561 47.2351C37.731 47.3485 37.501 47.451 37.2643 47.5399L36.8985 47.6779L36.4531 49.5356H33.2252L32.7797 47.6779L32.414 47.5399C32.1773 47.4518 31.9465 47.3493 31.7222 47.2351L31.3731 47.0576L29.8219 48.0362L27.54 45.6098L28.4603 43.9605L28.2934 43.5893C28.1867 43.35 28.0903 43.1055 28.0067 42.8538L27.877 42.4649L26.1291 41.9912V38.5591L27.8763 38.0854L28.006 37.6965C28.0889 37.4448 28.1853 37.1995 28.2927 36.961L28.4596 36.5898L27.5393 34.9404L29.8212 32.5141L31.3724 33.4927L31.7215 33.3152C31.9465 33.2018 32.1765 33.0993 32.4133 33.0103L32.779 32.8724L33.2245 31.0139H36.4524L36.8978 32.8717L37.2636 33.0096C37.5003 33.0978 37.731 33.2003 37.9554 33.3144L38.3044 33.4919L39.8556 32.5133L42.1376 34.9397L41.2172 36.589L41.3841 36.9602C41.4908 37.1995 41.5872 37.4441 41.6709 37.6958L41.8006 38.0847L43.5485 38.5583V41.9905L41.8013 42.4641L41.6716 42.853C41.5886 43.1047 41.4922 43.35 41.3849 43.5886L41.2179 43.9597L42.1383 45.6098Z" fill="url(#paint0_linear)"/>
<path d="M34.8387 34.1007C31.637 34.1007 29.0322 36.8704 29.0322 40.2746C29.0322 43.6788 31.637 46.4485 34.8387 46.4485C38.0403 46.4485 40.6451 43.6788 40.6451 40.2746C40.6451 36.8704 38.0403 34.1007 34.8387 34.1007ZM34.8387 44.905C32.4369 44.905 30.4838 42.8283 30.4838 40.2746C30.4838 37.7209 32.4369 35.6442 34.8387 35.6442C37.2404 35.6442 39.1935 37.7209 39.1935 40.2746C39.1935 42.8283 37.2404 44.905 34.8387 44.905Z" fill="url(#paint1_linear)"/>
<path d="M34.8388 37.1877C33.2376 37.1877 31.9355 38.5722 31.9355 40.2747C31.9355 41.9772 33.2376 43.3616 34.8388 43.3616C36.4399 43.3616 37.742 41.9772 37.742 40.2747C37.742 38.5722 36.4399 37.1877 34.8388 37.1877ZM34.8388 41.8182C34.0382 41.8182 33.3872 41.1259 33.3872 40.2747C33.3872 39.4234 34.0382 38.7312 34.8388 38.7312C35.6394 38.7312 36.2904 39.4234 36.2904 40.2747C36.2904 41.1259 35.6394 41.8182 34.8388 41.8182Z" fill="url(#paint2_linear)"/>
<path d="M18.3812 16.2985C18.6243 17.0563 19.0474 17.7244 19.5967 18.2493V18.9038L16.1456 20.2796C14.7369 20.8407 13.7903 22.2926 13.7903 23.8922V27.9269H31.2096V23.8922C31.2096 22.2926 30.263 20.8407 28.855 20.2789L25.4032 18.9031V18.2493C25.9525 17.7251 26.3757 17.057 26.6188 16.2985C27.9864 16.049 29.0322 14.7874 29.0322 13.2639V10.1769C29.0322 6.34766 26.1021 3.23132 22.5 3.23132C18.8979 3.23132 15.9677 6.34766 15.9677 10.1769V13.2639C15.9677 14.7874 17.0135 16.049 18.3812 16.2985ZM23.9516 19.2241L22.5 21.7963L21.0483 19.2241V19.1676C21.5034 19.3398 21.9903 19.4378 22.5 19.4378C23.0096 19.4378 23.4965 19.3391 23.9516 19.1676V19.2241ZM20.011 20.3863L21.4743 22.9784L20.0206 23.7509L19.0814 20.7567L20.011 20.3863ZM29.758 23.8922V26.3834H15.2419V23.8922C15.2419 22.9321 15.8096 22.0616 16.6549 21.7244L17.722 21.2993L19.1729 25.9282L22.5 24.1594L25.827 25.9282L27.278 21.2993L28.3458 21.7251C29.1903 22.0616 29.758 22.9321 29.758 23.8922ZM25.9185 20.7567L24.9793 23.7517L23.5256 22.9792L24.9889 20.3863L25.9185 20.7567ZM22.5 17.8943C20.8988 17.8943 19.5967 16.5099 19.5967 14.8074V11.668C20.6592 11.549 21.6618 11.1371 22.5 10.4362C23.3381 11.1379 24.3407 11.549 25.4032 11.668V14.8074C25.4032 16.5099 24.1011 17.8943 22.5 17.8943ZM26.8548 14.593V11.9356C27.2868 12.2035 27.5806 12.696 27.5806 13.2646C27.5806 13.8333 27.2868 14.325 26.8548 14.593ZM22.5 4.7748C25.3008 4.7748 27.5806 7.19815 27.5806 10.1769V10.6062C27.1518 10.3405 26.6602 10.1769 26.129 10.1769H26.0042C24.8741 10.1769 23.8116 9.70931 23.0131 8.85957L22.5 8.31318L21.9868 8.85957C21.1876 9.70931 20.1259 10.1769 18.9957 10.1769H18.8709C18.3397 10.1769 17.8481 10.3405 17.4193 10.6062V10.1769C17.4193 7.19815 19.6992 4.7748 22.5 4.7748ZM18.1451 11.9348V14.5922C17.7131 14.3243 17.4193 13.8318 17.4193 13.2631C17.4193 12.6945 17.7131 12.2028 18.1451 11.9348Z" fill="url(#paint3_linear)"/>
<path d="M0 51.0791H14.5161V31.0139H0V51.0791ZM1.45161 32.5574H13.0645V49.5356H1.45161V32.5574Z" fill="url(#paint4_linear)"/>
<path d="M2.90332 34.1007H11.613V35.6424H2.90332V34.1007Z" fill="url(#paint5_linear)"/>
<path d="M2.90332 37.1877H4.35493V38.7294H2.90332V37.1877Z" fill="url(#paint6_linear)"/>
<path d="M5.8064 37.1877H11.6128V38.7294H5.8064V37.1877Z" fill="url(#paint7_linear)"/>
<path d="M2.90332 40.2745H11.613V41.8162H2.90332V40.2745Z" fill="url(#paint8_linear)"/>
<path d="M2.90332 43.3617H11.613V44.9034H2.90332V43.3617Z" fill="url(#paint9_linear)"/>
<path d="M10.1614 46.4485H11.613V47.9902H10.1614V46.4485Z" fill="url(#paint10_linear)"/>
<path d="M2.90332 46.4485H8.70977V47.9902H2.90332V46.4485Z" fill="url(#paint11_linear)"/>
<path d="M19.3841 37.7334L18.3578 36.6421L14.9414 40.2747L18.3578 43.9073L19.3841 42.816L17.7199 41.0464H23.2258V39.5029H17.7199L19.3841 37.7334Z" fill="url(#paint12_linear)"/>
<path d="M7.98384 15.5791C7.98384 15.1541 8.30918 14.8074 8.70965 14.8074H12.0381L10.3739 16.577L11.4002 17.6682L14.8166 14.0357L11.4002 10.4031L10.3739 11.4944L12.0381 13.2639H8.70965C7.5093 13.2639 6.53223 14.3028 6.53223 15.5791V29.4704H7.98384V15.5791Z" fill="url(#paint13_linear)"/>
<path d="M34.8387 15.5791V25.2922L33.1745 23.5226L32.1481 24.6139L35.5645 28.2465L38.9809 24.6139L37.9546 23.5226L36.2903 25.2922V15.5791C36.2903 14.3028 35.3133 13.2639 34.1129 13.2639H30.4839V14.8074H34.1129C34.5134 14.8074 34.8387 15.1541 34.8387 15.5791Z" fill="url(#paint14_linear)"/>
<defs>
<linearGradient id="paint0_linear" x1="0.450065" y1="3.23134" x2="47.7594" y2="48.1744" gradientUnits="userSpaceOnUse">
<stop stop-color="#FC4647"/>
<stop offset="1" stop-color="#24263A"/>
</linearGradient>
<linearGradient id="paint1_linear" x1="-0.450016" y1="3.70994" x2="47.7263" y2="48.1218" gradientUnits="userSpaceOnUse">
<stop stop-color="#FC4647"/>
<stop offset="1" stop-color="#24263A"/>
</linearGradient>
<linearGradient id="paint2_linear" x1="5.94152e-05" y1="2.75281" x2="47.7578" y2="47.6682" gradientUnits="userSpaceOnUse">
<stop stop-color="#FC4647"/>
<stop offset="1" stop-color="#24263A"/>
</linearGradient>
<linearGradient id="paint3_linear" x1="0.449958" y1="3.23132" x2="47.7301" y2="47.6976" gradientUnits="userSpaceOnUse">
<stop stop-color="#FC4647"/>
<stop offset="1" stop-color="#24263A"/>
</linearGradient>
<linearGradient id="paint4_linear" x1="-6.9561e-07" y1="2.75295" x2="48.2353" y2="48.1175" gradientUnits="userSpaceOnUse">
<stop stop-color="#FC4647"/>
<stop offset="1" stop-color="#24263A"/>
</linearGradient>
<linearGradient id="paint5_linear" x1="0.000104005" y1="2.78898" x2="47.7349" y2="48.1839" gradientUnits="userSpaceOnUse">
<stop stop-color="#FC4647"/>
<stop offset="1" stop-color="#24263A"/>
</linearGradient>
<linearGradient id="paint6_linear" x1="9.32414e-05" y1="2.79252" x2="47.763" y2="48.6641" gradientUnits="userSpaceOnUse">
<stop stop-color="#FC4647"/>
<stop offset="1" stop-color="#24263A"/>
</linearGradient>
<linearGradient id="paint7_linear" x1="0.449935" y1="3.27046" x2="47.2304" y2="47.767" gradientUnits="userSpaceOnUse">
<stop stop-color="#FC4647"/>
<stop offset="1" stop-color="#24263A"/>
</linearGradient>
<linearGradient id="paint8_linear" x1="9.5502e-05" y1="3.27406" x2="47.7347" y2="48.669" gradientUnits="userSpaceOnUse">
<stop stop-color="#FC4647"/>
<stop offset="1" stop-color="#24263A"/>
</linearGradient>
<linearGradient id="paint9_linear" x1="9.60726e-05" y1="2.79936" x2="47.2863" y2="48.2217" gradientUnits="userSpaceOnUse">
<stop stop-color="#FC4647"/>
<stop offset="1" stop-color="#24263A"/>
</linearGradient>
<linearGradient id="paint10_linear" x1="10.8872" y1="46.4485" x2="10.8872" y2="47.9902" gradientUnits="userSpaceOnUse">
<stop stop-color="#FC4647"/>
<stop offset="1" stop-color="#24263A"/>
</linearGradient>
<linearGradient id="paint11_linear" x1="9.40895e-05" y1="2.80316" x2="47.7348" y2="48.1981" gradientUnits="userSpaceOnUse">
<stop stop-color="#FC4647"/>
<stop offset="1" stop-color="#24263A"/>
</linearGradient>
<linearGradient id="paint12_linear" x1="-3.23761e-06" y1="2.7529" x2="47.7578" y2="47.6683" gradientUnits="userSpaceOnUse">
<stop stop-color="#FC4647"/>
<stop offset="1" stop-color="#24263A"/>
</linearGradient>
<linearGradient id="paint13_linear" x1="-0.900032" y1="7.05935" x2="49.5124" y2="51.3405" gradientUnits="userSpaceOnUse">
<stop stop-color="#FC4647"/>
<stop offset="1" stop-color="#24263A"/>
</linearGradient>
<linearGradient id="paint14_linear" x1="0.450036" y1="4.18828" x2="48.8285" y2="51.9399" gradientUnits="userSpaceOnUse">
<stop stop-color="#FC4647"/>
<stop offset="1" stop-color="#24263A"/>
</linearGradient>
</defs>
</svg>
