<svg width="26" height="26" viewBox="0 0 26 26" fill="none" xmlns="http://www.w3.org/2000/svg">
<g opacity="0.5">
<path d="M3.80859 22.9023H22.1914C24.2915 22.9023 26 21.1938 26 19.0938V6.90625C26 4.80617 24.2915 3.09766 22.1914 3.09766H3.80859C1.70851 3.09766 0 4.80617 0 6.90625V19.0938C0 21.1938 1.70851 22.9023 3.80859 22.9023ZM1.52344 6.90625C1.52344 5.64624 2.54858 4.62109 3.80859 4.62109H22.1914C23.4514 4.62109 24.4766 5.64624 24.4766 6.90625V19.0938C24.4766 20.3538 23.4514 21.3789 22.1914 21.3789H3.80859C2.54858 21.3789 1.52344 20.3538 1.52344 19.0938V6.90625Z" fill="#EDEED4"/>
<path d="M9.19141 7.89697V18.2512L18.3574 12.9892L9.19141 7.89697ZM10.7148 10.486L15.2598 13.011L10.7148 15.6201V10.486Z" fill="#EDEED4"/>
</g>
</svg>
